<svg width="126" height="126" viewBox="0 0 126 126" fill="none" xmlns="http://www.w3.org/2000/svg">
<path fill-rule="evenodd" clip-rule="evenodd" d="M60.0865 13.4143C61.0296 13.0221 62.0409 12.8202 63.0623 12.8202C64.0837 12.8202 65.0951 13.0221 66.0382 13.4143C66.9813 13.8065 67.8376 14.3813 68.5578 15.1055L68.5697 15.1175L72.9447 19.4925L72.9566 19.5044C76.6545 23.1815 81.6565 25.2468 86.8714 25.2498H93.1248C95.1803 25.2498 97.1515 26.0663 98.6049 27.5198C100.058 28.9732 100.875 30.9444 100.875 32.9998V39.2498L100.875 39.2533C100.878 44.4681 102.943 49.4702 106.62 53.168L106.632 53.18L111.007 57.555L111.019 57.5669C111.743 58.2871 112.318 59.1433 112.71 60.0865C113.103 61.0296 113.304 62.0409 113.304 63.0623C113.304 64.0837 113.103 65.095 112.71 66.0382C112.318 66.9813 111.743 67.8376 111.019 68.5578L111.007 68.5697L106.632 72.9447L106.62 72.9566C102.943 76.6545 100.878 81.6565 100.875 86.8714L100.875 86.8748V93.1248C100.875 95.1803 100.058 97.1515 98.6049 98.6049C97.1515 100.058 95.1803 100.875 93.1248 100.875H86.8748L86.8714 100.875C81.6565 100.878 76.6545 102.943 72.9566 106.62L72.9447 106.632L68.5697 111.007L68.5578 111.019C67.8376 111.743 66.9813 112.318 66.0382 112.71C65.095 113.103 64.0837 113.304 63.0623 113.304C62.0409 113.304 61.0296 113.103 60.0865 112.71C59.1433 112.318 58.2871 111.743 57.5669 111.019L57.555 111.007L53.18 106.632L53.168 106.62C49.4702 102.943 44.4681 100.878 39.2533 100.875H32.9998C30.9444 100.875 28.9732 100.058 27.5198 98.6049C26.0663 97.1515 25.2498 95.1803 25.2498 93.1248V86.8714C25.2468 81.6565 23.1815 76.6545 19.5044 72.9566L19.4925 72.9447L15.1175 68.5697L15.1055 68.5578C14.3813 67.8376 13.8065 66.9813 13.4143 66.0382C13.0221 65.0951 12.8202 64.0837 12.8202 63.0623C12.8202 62.0409 13.0221 61.0296 13.4143 60.0865C13.8065 59.1434 14.3813 58.2871 15.1055 57.5669L15.1175 57.555L19.4925 53.18L19.5044 53.168C23.1815 49.4702 25.2468 44.4681 25.2498 39.2533V32.9998C25.2498 30.9444 26.0663 28.9732 27.5198 27.5198C28.9732 26.0663 30.9444 25.2498 32.9998 25.2498H39.2533C44.4681 25.2468 49.4702 23.1815 53.168 19.5044L53.18 19.4925L57.555 15.1175L57.5669 15.1055C58.2871 14.3813 59.1434 13.8065 60.0865 13.4143ZM19.0345 19.0345C15.3306 22.7383 13.2498 27.7618 13.2498 32.9998V39.2478C13.2483 41.2913 12.4397 43.2515 11.0002 44.7017L10.9953 44.7066L6.64413 49.0578L6.63716 49.0647C4.79471 50.8987 3.33243 53.0783 2.33421 55.4787C1.33472 57.8821 0.82019 60.4594 0.82019 63.0623C0.82019 65.6653 1.33472 68.2425 2.33421 70.646C3.33261 73.0468 4.79525 75.2268 6.63817 77.0609L6.64413 77.0669L10.9953 81.418L11 81.4228C12.4396 82.8731 13.2483 84.8332 13.2498 86.8768V93.1248C13.2498 98.3629 15.3306 103.386 19.0345 107.09C22.7383 110.794 27.7618 112.875 32.9998 112.875H39.2464C41.2905 112.876 43.2513 113.685 44.7019 115.125L44.7066 115.129L49.0578 119.481L49.0653 119.488C50.8991 121.33 53.0786 122.792 55.4787 123.79C57.8821 124.79 60.4594 125.304 63.0623 125.304C65.6653 125.304 68.2426 124.79 70.646 123.79C73.0461 122.792 75.2255 121.33 77.0594 119.488L77.0669 119.481L81.418 115.129L81.4217 115.126C82.8724 113.685 84.8336 112.876 86.8783 112.875H93.1248C98.3629 112.875 103.386 110.794 107.09 107.09C110.794 103.386 112.875 98.3629 112.875 93.1248V86.8783C112.876 84.8336 113.685 82.8724 115.126 81.4217L115.129 81.418L119.481 77.0669L119.488 77.0594C121.33 75.2255 122.792 73.0461 123.79 70.646C124.79 68.2426 125.304 65.6653 125.304 63.0623C125.304 60.4594 124.79 57.8821 123.79 55.4787C122.792 53.0786 121.33 50.8991 119.488 49.0653L119.481 49.0578L115.129 44.7066L115.125 44.7019C113.685 43.2513 112.876 41.2905 112.875 39.2464V32.9998C112.875 27.7618 110.794 22.7383 107.09 19.0345C103.386 15.3306 98.3629 13.2498 93.1248 13.2498H86.8768C84.8332 13.2483 82.8731 12.4396 81.4228 11L81.418 10.9953L77.0669 6.64413L77.0609 6.63817C75.2268 4.79525 73.0468 3.33261 70.646 2.33421C68.2425 1.33472 65.6653 0.82019 63.0623 0.82019C60.4594 0.82019 57.8821 1.33472 55.4787 2.33421C53.0783 3.33243 50.8987 4.79471 49.0647 6.63716L49.0578 6.64413L44.7066 10.9953L44.7017 11.0002C43.2515 12.4397 41.2913 13.2483 39.2478 13.2498H32.9998C27.7618 13.2498 22.7383 15.3306 19.0345 19.0345ZM48.4926 85.9926L85.9926 48.4926C88.3358 46.1495 88.3358 42.3505 85.9926 40.0074C83.6495 37.6642 79.8505 37.6642 77.5074 40.0074L40.0074 77.5074C37.6642 79.8505 37.6642 83.6495 40.0074 85.9926C42.3505 88.3358 46.1495 88.3358 48.4926 85.9926ZM40.75 47.375C40.75 43.7161 43.7161 40.75 47.375 40.75C51.0339 40.75 54 43.7161 54 47.375C54 51.0339 51.0339 54 47.375 54C43.7161 54 40.75 51.0339 40.75 47.375ZM72 78.6249C72 74.9661 74.9661 71.9999 78.625 71.9999C82.2839 71.9999 85.25 74.9661 85.25 78.6249C85.25 82.2838 82.2839 85.2499 78.625 85.2499C74.9661 85.2499 72 82.2838 72 78.6249Z" fill="#232323"/>
</svg>
