<svg width="145" height="145" viewBox="0 0 145 145" fill="none" xmlns="http://www.w3.org/2000/svg">
<path d="M44.0324 55.9043C41.5742 42.4238 39.082 28.5695 39.0027 14.8059C38.9914 13.0953 38.4023 9.3797 40.1242 8.41681C41.4042 7.69181 43.4886 7.49923 44.9386 7.52189C46.1281 7.53321 46.0941 8.07696 46.4566 9.05118C48.8015 15.2817 48.9941 22.1805 49.9003 28.7168C50.8746 35.6496 51.7128 42.5938 52.8117 49.5039C54.2164 58.2606 55.5531 67.1078 55.4285 75.9438C55.4171 76.918 55.4511 78.1641 54.7714 78.6965C53.4574 79.7274 51.0898 79.2856 49.5831 78.6965C47.5894 77.9035 47.2269 74.0066 46.6718 71.8543C46.0374 69.3621 45.539 67.0399 45.1878 64.491C44.9839 62.9277 44.5081 61.3984 44.3042 59.8352C44.157 58.4645 44.2929 57.275 44.0324 55.9043V55.9043Z" fill="#E9F8FB"/>
<path d="M44.7347 7.52186H44.9386C46.128 7.53319 46.094 8.07694 46.4565 9.05116C48.8014 15.2816 48.994 22.1805 49.9003 28.7168C50.8745 35.6496 51.7128 42.5937 52.8116 49.5039C54.2163 58.2605 55.553 67.1078 55.4284 75.9437C55.4171 76.918 55.4511 78.164 54.7714 78.6965C54.1936 79.1496 53.4347 79.3195 52.619 79.3195C51.5655 79.3195 50.444 79.0363 49.5944 78.6965C47.6007 77.9035 47.2382 74.0066 46.6831 71.8543C46.0487 69.3621 45.5503 67.0398 45.1991 64.491C44.9952 62.9277 44.5194 61.3984 44.3155 59.8351C44.1569 58.4644 44.2929 57.2863 44.0436 55.9156C41.5854 42.4351 39.0932 28.5808 39.0139 14.8172C39.0026 13.1066 38.4136 9.391 40.1354 8.42811C41.3475 7.72577 43.296 7.52186 44.7347 7.52186V7.52186ZM44.7347 0.702332C42.537 0.702332 39.3764 1.00819 36.771 2.48085C31.662 5.34686 32.0018 11.4754 32.1491 14.0922C32.1604 14.3754 32.1831 14.6359 32.1831 14.8512C32.2737 29.4758 34.9585 44.1683 37.3261 57.1277C37.3714 57.3996 37.394 57.7961 37.4054 58.3058C37.428 58.9402 37.4507 59.7332 37.5526 60.6394C37.6886 61.7836 37.9151 62.7691 38.1077 63.6527C38.2436 64.2871 38.3796 64.8875 38.4362 65.3746C38.81 68.0367 39.3085 70.5515 40.0788 73.5535C40.1694 73.9047 40.2487 74.2898 40.328 74.6976C40.985 77.8242 42.0725 83.0578 47.0796 85.0402C48.1331 85.4594 50.2288 86.139 52.619 86.139C55.0546 86.139 57.2636 85.4254 58.9968 84.066C62.18 81.5738 62.2253 77.8469 62.2479 76.2496V76.0683C62.3725 66.9152 61.1038 58.1359 59.5518 48.439C58.8268 43.8738 58.2038 39.1613 57.5807 34.5961C57.2862 32.3191 56.9804 30.0535 56.6632 27.7765C56.4366 26.168 56.2554 24.548 56.0854 22.9168C55.4964 17.5926 54.896 12.0984 52.8569 6.66093L52.8003 6.491C51.1577 1.51796 47.2268 0.736316 45.0405 0.71366H44.7347V0.702332V0.702332Z" fill="#EDEDED"/>
<path d="M65.0349 55.2926C64.2306 41.6082 63.4489 27.55 65.0235 13.8883C65.2161 12.1891 65.0802 8.42812 66.904 7.68046C68.2634 7.11406 70.3591 7.18203 71.7978 7.3746C72.9872 7.5332 72.8739 8.06562 73.1118 9.07382C74.6864 15.5535 74.0407 22.4184 74.154 29.0113C74.2673 36.0121 74.2673 43.0129 74.5278 50.0023C74.845 58.8609 75.1056 67.8102 73.9161 76.5555C73.7802 77.5297 73.6556 78.7644 72.9419 79.2176C71.5032 80.0785 69.2036 79.3535 67.7876 78.5832C65.9071 77.5637 66.0204 73.6555 65.7259 71.4465C65.3974 68.8976 65.1821 66.5301 65.1481 63.9586C65.1368 62.3726 64.8423 60.8094 64.8423 59.2234C64.8536 57.8301 65.1141 56.6859 65.0349 55.2926V55.2926Z" fill="#E9F8FB"/>
<path d="M69.7812 7.23866C70.5062 7.23866 71.1972 7.2953 71.8089 7.3746C72.9984 7.53319 72.8851 8.06561 73.123 9.07382C74.6976 15.5535 74.0519 22.4183 74.1652 29.0113C74.2784 36.0121 74.2784 43.0129 74.539 50.0023C74.8562 58.8609 75.1167 67.8101 73.9273 76.5555C73.7913 77.5297 73.6667 78.7644 72.9531 79.2176C72.4773 79.4894 71.9335 79.614 71.3558 79.614C70.1324 79.614 68.7616 79.1043 67.7988 78.5832C65.9183 77.5637 66.0316 73.6555 65.737 71.4465C65.4085 68.8976 65.1933 66.5301 65.1593 63.9586C65.148 62.3726 64.8534 60.8094 64.8534 59.2234C64.8534 57.8414 65.1253 56.6859 65.046 55.2926C64.2417 41.6082 63.4601 27.55 65.0347 13.8883C65.2273 12.1891 65.0913 8.42811 66.9152 7.68046C67.7081 7.35194 68.7616 7.23866 69.7812 7.23866V7.23866ZM69.7812 0.419128C67.6968 0.419128 65.8616 0.736316 64.3097 1.37069C58.8835 3.61366 58.4757 9.74218 58.3058 12.3703C58.2945 12.6422 58.2831 12.9027 58.2491 13.118C56.5612 27.6859 57.4448 42.5711 58.2265 55.7004C58.2378 55.9609 58.2038 56.3687 58.1585 56.8785C58.0905 57.5016 58.0226 58.2945 58.0226 59.2008C58.0226 60.3562 58.1132 61.3644 58.2038 62.2594C58.2605 62.9051 58.3171 63.5168 58.3284 64.0039C58.3624 66.6433 58.555 69.2035 58.9628 72.3187C59.0081 72.6473 59.0308 73.0324 59.0648 73.4515C59.3027 76.4308 59.7671 81.993 64.5249 84.5644C65.7937 85.2555 68.3652 86.4223 71.3331 86.4223C73.2023 86.4223 74.9355 85.9578 76.4421 85.0515C79.9199 82.9332 80.4183 79.2629 80.6335 77.6883L80.6562 77.507C81.8796 68.5238 81.687 59.6312 81.3245 49.7531C81.1546 45.1312 81.098 40.3734 81.0527 35.7742C81.03 33.4746 80.996 31.1863 80.962 28.8867C80.9394 27.2894 80.9507 25.6582 80.9734 24.0269C81.0413 18.6687 81.098 13.118 79.7386 7.45389L79.6933 7.26132C78.6624 2.141 74.8675 0.883582 72.6925 0.600378C71.7296 0.487097 70.7214 0.419128 69.7812 0.419128V0.419128Z" fill="#EDEDED"/>
<path d="M89.73 32.1379C86.4335 45.4484 83.1144 59.1215 82.1742 72.8512C82.0609 74.5617 81.2453 78.232 82.8992 79.2969C84.1339 80.0898 86.1956 80.4184 87.6456 80.4863C88.8578 80.543 88.8351 79.9992 89.2656 79.059C91.9843 72.9758 92.6074 66.1109 93.9101 59.6312C95.2921 52.7777 96.5609 45.8902 98.0902 39.0594C100.016 30.4047 101.896 21.648 102.327 12.8461C102.372 11.8719 102.474 10.6258 101.84 10.048C100.594 8.93788 98.1921 9.23242 96.6628 9.73085C94.6238 10.3879 94.0234 14.2621 93.3437 16.3805C92.5507 18.8273 91.9163 21.1156 91.4179 23.6531C91.112 25.2051 90.5456 26.6891 90.2511 28.2523C89.9906 29.6004 90.0585 30.7785 89.73 32.1379V32.1379Z" fill="#E9F8FB"/>
<path d="M99.3476 9.28907C100.288 9.28907 101.205 9.49298 101.84 10.0481C102.474 10.6145 102.372 11.8606 102.327 12.8461C101.908 21.6481 100.016 30.416 98.0902 39.0594C96.5609 45.9016 95.2922 52.7777 93.9102 59.6313C92.6074 66.1109 91.9844 72.9645 89.2656 79.059C88.8691 79.9539 88.8578 80.4977 87.8156 80.4977H87.6457C86.1957 80.4297 84.134 80.1012 82.8992 79.3082C81.2453 78.232 82.0496 74.5731 82.1742 72.8625C83.1145 59.1328 86.4336 45.4598 89.7301 32.1492C90.0586 30.7899 90.0019 29.6117 90.2512 28.2524C90.5457 26.7004 91.1121 25.2051 91.418 23.6531C91.9164 21.127 92.5508 18.8274 93.3437 16.3805C94.0234 14.2621 94.6238 10.3992 96.6629 9.73087C97.4219 9.48165 98.4074 9.28907 99.3476 9.28907V9.28907ZM99.3476 2.46954C97.3652 2.46954 95.632 2.90001 94.5445 3.26251C89.4129 4.92775 87.9516 10.3086 87.1699 13.2086C87.068 13.6051 86.966 13.9789 86.8641 14.2961C85.9352 17.1508 85.2555 19.7109 84.7457 22.3277C84.6551 22.8149 84.4738 23.4039 84.3039 24.0156C84.0434 24.8879 83.7602 25.8848 83.5563 26.9949C83.3863 27.9125 83.3184 28.7168 83.2504 29.3625C83.2051 29.8723 83.1711 30.2688 83.1031 30.5293C79.9539 43.2735 76.3742 57.7395 75.3887 72.3981C75.3773 72.568 75.3434 72.8172 75.298 73.1004C74.9922 75.7172 74.2672 81.8231 79.1949 85.0289C81.9477 86.7961 85.4707 87.2152 87.3172 87.3172C87.4984 87.3172 87.657 87.3285 87.8156 87.3285C89.866 87.3285 93.5703 86.6375 95.4168 82.027L95.4848 81.8457C97.8637 76.5328 98.8152 71.0613 99.7215 65.7824C100.005 64.1738 100.265 62.5766 100.594 61.0133C101.047 58.759 101.489 56.5047 101.93 54.2504C102.825 49.7418 103.732 45.0859 104.74 40.5774C106.892 30.9711 108.693 22.2711 109.135 13.2086L109.146 12.9934C109.214 11.4074 109.396 7.70314 106.405 5.00704C105.091 3.81759 102.837 2.46954 99.3476 2.46954V2.46954Z" fill="#EDEDED"/>
<path d="M106.439 60.3223C110.325 47.1703 114.357 33.6898 120.486 21.3648C121.245 19.8355 122.4 16.2558 124.36 16.1652C125.833 16.1086 127.781 16.8676 129.073 17.5473C130.126 18.1023 129.854 18.5668 129.741 19.5976C129.016 26.2246 126.082 32.4664 123.941 38.7082C121.687 45.3238 119.296 51.9055 117.155 58.5777C114.459 67.0172 111.661 75.5359 107.572 83.3523C107.119 84.2246 106.575 85.3574 105.748 85.516C104.094 85.8445 102.191 84.3832 101.115 83.1824C99.6875 81.5738 101.126 77.9375 101.602 75.7625C102.157 73.259 102.757 70.9594 103.607 68.5238C104.128 67.0285 104.389 65.4539 104.921 63.9699C105.397 62.6445 106.054 61.659 106.439 60.3223V60.3223Z" fill="#E9F8FB"/>
<path d="M124.53 16.1652C125.98 16.1652 127.827 16.9016 129.073 17.5473C130.126 18.1023 129.854 18.5668 129.741 19.5977C129.016 26.2246 126.082 32.4664 123.941 38.7082C121.687 45.3238 119.296 51.9055 117.155 58.5777C114.459 67.0172 111.661 75.5359 107.572 83.3523C107.119 84.2246 106.575 85.3574 105.748 85.516C105.589 85.55 105.419 85.5613 105.261 85.5613C103.743 85.5613 102.078 84.2586 101.115 83.1711C99.6875 81.5625 101.126 77.9262 101.602 75.7512C102.157 73.2477 102.757 70.948 103.607 68.5125C104.128 67.0172 104.389 65.4426 104.921 63.9586C105.386 62.6559 106.043 61.6703 106.428 60.3223C110.313 47.1703 114.346 33.6898 120.475 21.3648C121.234 19.8355 122.389 16.2559 124.349 16.1652H124.53V16.1652ZM124.53 9.3457H124.088C118.198 9.61758 115.728 15.259 114.686 17.6719C114.573 17.9324 114.471 18.159 114.38 18.3516C107.866 31.4695 103.63 45.777 99.914 58.3852C99.8347 58.6457 99.6648 59.0082 99.4609 59.4613C99.189 60.0391 98.8492 60.7754 98.532 61.6477C98.1468 62.7125 97.8863 63.7207 97.6597 64.6043C97.5011 65.2273 97.3539 65.8164 97.1953 66.2809C96.323 68.7844 95.632 71.2652 94.9636 74.3012C94.8957 74.6184 94.7937 74.9922 94.6804 75.4C93.8535 78.4926 92.4488 83.6582 96.0285 87.691C97.2859 89.107 100.684 92.3695 105.272 92.3695C105.895 92.3695 106.496 92.3016 107.096 92.1883C111.072 91.384 112.794 88.0988 113.53 86.6828L113.621 86.5129C117.835 78.4359 120.656 70.0191 123.658 60.6395C125.051 56.3121 126.592 51.8941 128.076 47.6348C128.857 45.3918 129.639 43.1488 130.398 40.8945C130.919 39.3992 131.474 37.8926 132.041 36.3746C133.921 31.3336 135.881 26.134 136.515 20.3227L136.549 20.1527C137.331 14.9758 134.182 12.5063 132.244 11.4867C130.319 10.5125 127.453 9.3457 124.53 9.3457V9.3457Z" fill="#EDEDED"/>
<path d="M32.7496 48.4731C39.3653 60.4922 46.0942 72.8625 50.5235 85.8785C51.0899 87.4984 52.8118 90.8402 51.4864 92.2902C50.4895 93.3777 48.5864 94.2273 47.193 94.6691C46.0489 95.0316 45.9243 94.4992 45.2786 93.6949C41.0871 88.5293 38.7196 82.0496 35.7856 76.125C32.6703 69.8605 29.6684 63.5281 26.4512 57.3203C22.3618 49.4586 18.2723 41.4836 15.5989 33.0781C15.3157 32.1492 14.8852 30.9711 15.3496 30.2574C16.2785 28.8527 18.6575 28.5242 20.2774 28.6148C22.4071 28.7281 23.993 32.3078 25.1938 34.177C26.5871 36.3406 27.7879 38.391 28.9207 40.702C29.6231 42.1293 30.552 43.4207 31.243 44.8481C31.8434 46.0941 32.0813 47.2609 32.7496 48.4731V48.4731Z" fill="#E9F8FB"/>
<path d="M19.779 28.6035C19.9602 28.6035 20.1302 28.6035 20.2887 28.6149C22.4184 28.7281 24.0044 32.3078 25.2052 34.177C26.5985 36.3406 27.7993 38.391 28.9321 40.702C29.6344 42.1293 30.5634 43.4207 31.2544 44.8481C31.8434 46.0942 32.0813 47.2609 32.7497 48.4844C39.3653 60.4922 46.0942 72.8625 50.5235 85.8785C51.0899 87.4984 52.8118 90.8402 51.4864 92.2902C50.4895 93.3777 48.5864 94.2274 47.193 94.6691C46.9438 94.7484 46.7399 94.7824 46.57 94.7824C45.9696 94.7824 45.777 94.3293 45.2786 93.6949C41.0872 88.5293 38.7196 82.0496 35.7856 76.125C32.6704 69.8606 29.6684 63.5281 26.4512 57.3203C22.3618 49.4586 18.2723 41.4836 15.5989 33.0781C15.3157 32.1492 14.8852 30.9711 15.3497 30.2574C16.188 29 18.2157 28.6035 19.779 28.6035V28.6035ZM19.779 21.784C15.3384 21.784 11.6567 23.5059 9.67429 26.4965C7.44265 29.8836 8.57546 33.4293 9.05124 34.9473L9.10789 35.1172C11.8719 43.7945 15.8594 51.7356 20.402 60.4695C22.5091 64.525 24.5708 68.7391 26.5645 72.8172C27.5954 74.9356 28.6376 77.0426 29.6798 79.1496C30.3821 80.5656 31.0391 82.0156 31.7188 83.4883C33.9618 88.382 36.2841 93.4344 39.977 97.977L40.0676 98.1016C41.7895 100.424 43.9759 101.591 46.57 101.591C47.4536 101.591 48.3145 101.455 49.2434 101.16C51.0333 100.582 54.3298 99.2797 56.5274 96.8781C60.4923 92.5055 58.204 86.7735 57.2298 84.3266L56.9579 83.6356C52.2454 69.7813 45.0634 56.7199 38.7196 45.1879C38.5837 44.9613 38.4591 44.5649 38.2891 44.1231C38.0739 43.5227 37.802 42.775 37.4055 41.9367C36.8958 40.8719 36.3747 39.9996 35.9216 39.2406C35.5817 38.6742 35.2645 38.1418 35.0493 37.7C33.8938 35.3438 32.6364 33.1121 30.9259 30.484C30.7446 30.2008 30.552 29.861 30.3481 29.4985C28.8415 26.9156 26.0548 22.1012 20.6626 21.8067C20.3794 21.7953 20.0848 21.784 19.779 21.784V21.784Z" fill="#EDEDED"/>
<path d="M75.8304 58.3965C71.4124 71.3785 66.9265 84.7117 64.8308 98.3168C64.5702 100.016 63.4374 103.584 65.0007 104.808C66.1675 105.703 68.1952 106.201 69.6339 106.405C70.8233 106.575 70.8573 106.02 71.3558 105.114C74.5843 99.2797 75.7964 92.5055 77.6542 86.1617C79.6253 79.4441 81.4831 72.7039 83.5788 66.0203C86.2409 57.5582 88.8804 48.9941 90.0472 40.2602C90.1718 39.2859 90.387 38.0625 89.7979 37.4281C88.6425 36.2047 86.2296 36.3066 84.655 36.6691C82.5706 37.1563 81.6417 40.9512 80.7807 43.0129C79.7839 45.3805 78.9569 47.6121 78.2433 50.0816C77.8128 51.5996 77.1104 53.027 76.6913 54.5563C76.3175 55.8816 76.2835 57.0711 75.8304 58.3965V58.3965Z" fill="#E9F8FB"/>
<path d="M86.7508 36.4199C87.9176 36.4199 89.0957 36.6805 89.798 37.4168C90.3758 38.0399 90.1605 39.2746 90.0473 40.2488C88.8805 48.9828 86.241 57.5582 83.5789 66.009C81.4832 72.6813 79.6254 79.4215 77.6543 86.1504C75.7965 92.4828 74.5957 99.2684 71.3559 105.102C70.9141 105.907 70.8348 106.416 70.0078 106.416C69.8945 106.416 69.7699 106.405 69.634 106.394C68.1953 106.201 66.1676 105.703 65.0008 104.797C63.4375 103.584 64.5703 100.005 64.8309 98.3055C66.9266 84.7117 71.4125 71.3672 75.8305 58.3852C76.2723 57.0598 76.3176 55.8817 76.6914 54.5449C77.1105 53.0156 77.8129 51.5883 78.2434 50.0703C78.957 47.5895 79.784 45.3578 80.7809 43.0016C81.6418 40.9512 82.5707 37.1449 84.6551 36.6578C85.2668 36.5219 86.0031 36.4199 86.7508 36.4199V36.4199ZM86.7508 29.6004C85.5613 29.6004 84.3039 29.7477 83.1145 30.0195C77.8469 31.2543 75.9211 36.4766 74.9016 39.286C74.7543 39.6711 74.6297 40.0449 74.4938 40.3508C73.2816 43.2281 72.4207 45.641 71.6844 48.1785C71.5484 48.6543 71.3445 49.2207 71.1066 49.8211C70.7781 50.6707 70.4156 51.6336 70.1211 52.7324C69.8719 53.616 69.7359 54.409 69.6227 55.0434C69.532 55.5418 69.4641 55.9383 69.3734 56.1875C65.1367 68.6258 60.3336 82.7406 58.0906 97.252C58.068 97.4332 58.0113 97.6824 57.9434 97.9543C57.4223 100.526 56.1762 106.552 60.7867 110.155C63.3922 112.16 66.8586 112.873 68.7051 113.123C69.1922 113.191 69.6227 113.213 70.0078 113.213C71.8203 113.213 75.1961 112.602 77.2465 108.535L77.3258 108.365C80.1578 103.256 81.5738 97.8863 82.9332 92.6867C83.341 91.1235 83.7375 89.5715 84.1906 88.0422C84.825 85.8445 85.4707 83.6356 86.1051 81.4266C87.3738 77.0086 88.6879 72.4547 90.0699 68.0367C93.0379 58.6231 95.5867 50.1043 96.7988 41.1324L96.8328 40.8832C97.0254 39.3313 97.5012 35.6836 94.7824 32.761C93.4117 31.311 90.9195 29.6004 86.7508 29.6004V29.6004Z" fill="#EDEDED"/>
<path d="M104.434 91.6785C111.945 80.2031 119.591 68.3879 125.006 55.7457C125.686 54.1711 127.668 50.9766 126.456 49.4246C125.55 48.2691 123.714 47.2723 122.366 46.7285C121.256 46.2754 121.086 46.7851 120.361 47.5441C115.785 52.3926 112.941 58.657 109.566 64.3437C105.986 70.3476 102.52 76.4195 98.8265 82.3781C94.1367 89.9113 89.4695 97.5465 86.1617 105.725C85.7992 106.632 85.2781 107.764 85.7086 108.523C86.5129 109.985 88.8804 110.495 90.489 110.528C92.6301 110.574 94.4765 107.13 95.8246 105.352C97.3765 103.312 98.7359 101.353 100.039 99.1324C100.843 97.7617 101.874 96.5609 102.655 95.1789C103.335 93.9894 103.675 92.8566 104.434 91.6785V91.6785Z" fill="#E9F8FB"/>
<path d="M121.675 46.5586C121.868 46.5586 122.083 46.6152 122.378 46.7285C123.726 47.2722 125.561 48.2578 126.467 49.4246C127.679 50.9879 125.708 54.1711 125.017 55.7457C119.602 68.3879 111.956 80.2031 104.445 91.6785C103.686 92.8453 103.347 93.9894 102.655 95.1902C101.874 96.5609 100.843 97.773 100.039 99.1437C98.736 101.364 97.3879 103.324 95.8246 105.363C94.4879 107.119 92.6528 110.54 90.5344 110.54H90.4891C88.8805 110.506 86.5243 109.996 85.7086 108.535C85.2895 107.776 85.7992 106.643 86.1617 105.737C89.4696 97.5578 94.1367 89.9226 98.8266 82.3894C102.508 76.4422 105.986 70.3703 109.566 64.355C112.941 58.6683 115.796 52.4039 120.361 47.5554C120.905 46.989 121.132 46.5586 121.675 46.5586V46.5586ZM121.675 39.7504C118.152 39.7504 116.17 42.0047 115.536 42.741L115.4 42.8883C111.412 47.125 108.716 51.9734 106.099 56.6633C105.306 58.0793 104.525 59.4953 103.709 60.866C102.497 62.905 101.285 64.9554 100.084 67.0172C97.7957 70.9027 95.4281 74.9129 93.0379 78.7871C87.861 87.1019 83.2844 94.6804 79.8407 103.165L79.75 103.403C79.1723 104.864 77.8016 108.286 79.7161 111.797C81.6078 115.196 85.5614 117.246 90.3418 117.348H90.5231C95.802 117.348 98.8039 113.009 100.582 110.415C100.82 110.075 101.036 109.747 101.239 109.475C103.063 107.085 104.536 104.898 105.907 102.599C106.156 102.168 106.507 101.67 106.881 101.149C107.402 100.401 107.991 99.5628 108.557 98.5773C109.033 97.773 109.362 97.048 109.622 96.4589C109.838 95.9945 109.996 95.6207 110.155 95.3941C117.337 84.4285 125.482 71.9675 131.27 58.4304C131.35 58.2718 131.452 58.0453 131.576 57.7961C132.732 55.4285 135.45 49.8777 131.825 45.2332C129.809 42.6504 126.637 41.0984 124.927 40.4074C123.828 39.9656 122.752 39.7504 121.675 39.7504V39.7504Z" fill="#EDEDED"/>
<path d="M95.4733 90.9989C100.684 78.3114 105.963 65.2727 108.897 51.8375C109.271 50.161 110.608 46.6492 109.124 45.3578C108.014 44.3836 106.02 43.7606 104.592 43.4887C103.414 43.2508 103.346 43.7946 102.791 44.6668C99.2003 50.2856 97.5917 56.9805 95.3487 63.1996C92.9698 69.7813 90.7042 76.3969 88.2007 82.9332C85.0288 91.2141 81.8909 99.6082 80.1803 108.252C79.9878 109.226 79.7046 110.427 80.2483 111.095C81.3358 112.375 83.7374 112.432 85.3233 112.16C87.4417 111.809 88.5971 108.07 89.594 106.065C90.7268 103.766 91.6897 101.591 92.5506 99.1664C93.0831 97.6711 93.8647 96.2891 94.3745 94.7938C94.8276 93.4797 94.9522 92.3016 95.4733 90.9989V90.9989Z" fill="#E9F8FB"/>
<path d="M104.117 43.4207C104.253 43.4207 104.411 43.4433 104.604 43.4773C106.02 43.7605 108.025 44.3836 109.135 45.3465C110.619 46.6492 109.282 50.1496 108.909 51.8262C105.975 65.2613 100.684 78.3 95.4847 90.9875C94.9636 92.2789 94.8503 93.4684 94.3972 94.7711C93.8874 96.2664 93.1058 97.6598 92.5734 99.1437C91.7124 101.568 90.7495 103.743 89.6167 106.043C88.6198 108.036 87.4644 111.775 85.346 112.137C84.8816 112.216 84.3378 112.262 83.7714 112.262C82.446 112.262 81.03 111.967 80.271 111.061C79.7273 110.404 80.0105 109.192 80.2031 108.218C81.9136 99.5742 85.0515 91.1801 88.2234 82.8992C90.7269 76.3629 92.9925 69.7473 95.3714 63.1656C97.6144 56.9578 99.223 50.2629 102.814 44.6328C103.267 43.9305 103.38 43.4207 104.117 43.4207V43.4207ZM104.117 36.6125C102.066 36.6125 99.189 37.3488 97.1386 40.8379L97.048 41.0078C93.9101 45.9242 92.1769 51.2031 90.5003 56.3008C89.9906 57.8414 89.4808 59.3707 88.9484 60.8773C88.1667 63.041 87.3851 65.216 86.6261 67.3797C85.0855 71.707 83.5109 76.1703 81.8343 80.4976C78.3226 89.6734 75.264 97.9996 73.4855 106.926L73.4515 107.13C73.1456 108.682 72.4319 112.318 74.9921 115.411C76.9972 117.812 80.1011 119.093 83.7601 119.093C84.6777 119.093 85.5839 119.013 86.4788 118.866C91.803 117.982 94.0347 112.862 95.2355 110.121C95.4054 109.747 95.5527 109.396 95.6999 109.09C97.0253 106.405 98.0788 103.97 98.9738 101.455C99.1437 100.99 99.3929 100.435 99.6534 99.8461C100.027 99.0191 100.458 98.0676 100.832 96.9914C101.126 96.1305 101.33 95.3262 101.477 94.6918C101.591 94.2047 101.693 93.8082 101.794 93.559C106.779 81.4379 112.432 67.6516 115.558 53.2988C115.603 53.1176 115.671 52.8797 115.739 52.6078C116.43 50.0703 118.039 44.123 113.621 40.2375C111.151 38.0851 107.73 37.1562 105.918 36.7937C105.318 36.6691 104.717 36.6125 104.117 36.6125V36.6125Z" fill="#EDEDED"/>
<path d="M58.4984 60.5942C59.1441 74.2899 59.8805 88.3481 62.9164 101.772C63.2902 103.448 63.5508 107.187 65.4539 107.742C66.8699 108.161 68.9316 107.878 70.3477 107.527C71.5145 107.243 71.3445 106.722 71.4918 105.691C72.3527 99.0871 70.982 92.3356 70.3817 85.7539C69.7699 78.7871 69.011 71.8317 68.5012 64.8422C67.8895 55.9949 67.1758 47.0684 65.0688 38.5043C64.8309 37.5414 64.5816 36.3293 63.8 35.9555C62.282 35.2531 60.0731 36.2274 58.7477 37.1336C56.9805 38.3571 57.5129 42.2313 57.4563 44.4629C57.3996 47.0344 57.4563 49.4133 57.6941 51.9735C57.8414 53.5481 57.7281 55.134 57.8981 56.7086C58.0227 58.0793 58.4305 59.2121 58.4984 60.5942V60.5942Z" fill="#E9F8FB"/>
<path d="M62.5993 35.7176C63.0298 35.7176 63.4263 35.7855 63.7888 35.9555C64.5591 36.3293 64.8083 37.5414 65.0575 38.5043C67.1759 47.0683 67.8782 55.9949 68.49 64.8422C68.9997 71.8316 69.7587 78.7871 70.3704 85.7539C70.9821 92.3355 72.3415 99.0871 71.4806 105.691C71.3446 106.722 71.5032 107.243 70.3364 107.527C69.4302 107.753 68.2294 107.957 67.1306 107.957C66.5189 107.957 65.9411 107.889 65.4427 107.753C63.5509 107.198 63.279 103.46 62.9052 101.783C59.8693 88.3594 59.1443 74.3125 58.4872 60.6054C58.4193 59.2121 58.0228 58.0906 57.8755 56.7199C57.7056 55.1453 57.8189 53.5594 57.6716 51.9847C57.4337 49.4246 57.3771 47.0457 57.4337 44.4742C57.4904 42.2426 56.9579 38.3683 58.7251 37.1449C59.7446 36.4539 61.2626 35.7176 62.5993 35.7176V35.7176ZM62.5993 28.9094C59.1896 28.9094 56.3009 30.5519 54.8736 31.5375C50.4216 34.6187 50.5575 40.1922 50.6255 43.1828C50.6368 43.5906 50.6482 43.9871 50.6368 44.3269C50.5689 47.3515 50.6595 49.991 50.8974 52.6191C50.9427 53.1176 50.954 53.718 50.954 54.3637C50.9653 55.2812 50.988 56.3234 51.1126 57.4676C51.2032 58.3625 51.3618 59.1554 51.4864 59.7898C51.5884 60.2883 51.6677 60.6847 51.6904 60.9566C52.3021 74.0633 53.0157 88.9371 56.2556 103.278C56.3009 103.46 56.3462 103.72 56.3802 103.992C56.8333 106.575 57.8868 112.636 63.5282 114.289C64.6044 114.607 65.8165 114.765 67.1193 114.765C69.045 114.765 70.8122 114.425 71.9564 114.142C74.0521 113.644 77.7111 111.99 78.1868 106.779L78.2095 106.586C78.9685 100.786 78.3001 95.2695 77.6657 89.934C77.4618 88.3254 77.2806 86.7281 77.1333 85.1422C76.9181 82.7519 76.6915 80.3504 76.4536 77.9375C76.0232 73.4855 75.5814 68.875 75.2642 64.3664C74.5732 54.5789 73.8255 45.743 71.6392 36.8844L71.5939 36.6918C71.22 35.1625 70.3251 31.5828 66.7341 29.8496C65.4087 29.1926 64.0493 28.9094 62.5993 28.9094V28.9094Z" fill="#EDEDED"/>
<path d="M52.8118 86.6715C51.4071 73.0211 49.9118 59.0422 46.1509 45.7996C45.6977 44.1457 45.222 40.4301 43.2962 39.9769C41.8575 39.6371 39.8071 40.0336 38.4251 40.464C37.2809 40.8152 37.4622 41.325 37.3829 42.3558C36.8845 49.0055 38.6177 55.6664 39.5919 62.2027C40.5887 69.1355 41.7216 76.0344 42.6052 82.9785C43.7153 91.7691 44.9161 100.65 47.4989 109.079C47.7821 110.019 48.1106 111.22 48.8923 111.548C50.4555 112.171 52.5966 111.084 53.8653 110.087C55.5645 108.773 54.8282 104.932 54.7602 102.712C54.6696 100.141 54.4884 97.773 54.1145 95.2242C53.8653 93.6609 53.9106 92.075 53.6501 90.5117C53.4009 89.1523 52.9591 88.0648 52.8118 86.6715V86.6715Z" fill="#E9F8FB"/>
<path d="M42.0501 39.8637C42.4919 39.8637 42.911 39.8976 43.2848 39.9883C45.2106 40.4414 45.6864 44.157 46.1395 45.8109C49.9118 59.0422 51.3958 73.0324 52.8005 86.6828C52.9591 88.0648 53.4009 89.1637 53.6274 90.523C53.888 92.0863 53.8427 93.6836 54.0919 95.2355C54.4657 97.7844 54.6583 100.152 54.7376 102.723C54.8055 104.955 55.5419 108.795 53.8427 110.098C52.8345 110.891 51.2598 111.741 49.8778 111.741C49.5266 111.741 49.1868 111.684 48.8696 111.559C48.088 111.231 47.7595 110.03 47.4763 109.09C44.8934 100.662 43.6927 91.7804 42.5825 82.9898C41.6989 76.0457 40.5661 69.1355 39.5692 62.214C38.595 55.6777 36.8618 49.0055 37.3602 42.3672C37.4395 41.3363 37.2583 40.8265 38.4024 40.4754C39.4333 40.1582 40.8153 39.8637 42.0501 39.8637V39.8637ZM42.0501 33.0441C39.7278 33.0441 37.5188 33.6219 36.4087 33.9617C34.3243 34.5961 30.8013 36.4426 30.586 41.6535L30.5747 41.8461C30.1442 47.7027 31.1071 53.1969 32.0473 58.5097C32.3305 60.0844 32.6138 61.659 32.8516 63.2222C33.2028 65.6351 33.5653 68.0933 33.9391 70.5289C34.5962 74.9015 35.2872 79.4328 35.8423 83.8508C37.077 93.5929 38.3005 102.384 40.9739 111.106L41.0306 111.287C41.4837 112.794 42.5712 116.34 46.2868 117.88C47.4649 118.356 48.6657 118.583 49.9005 118.583C53.5595 118.583 56.5727 116.657 58.0567 115.502C62.3048 112.205 61.8743 106.654 61.6364 103.675C61.6024 103.267 61.5684 102.871 61.5684 102.542C61.4665 99.5402 61.2399 96.9121 60.8434 94.2613C60.7528 93.7515 60.7302 93.1512 60.6735 92.5055C60.6169 91.5992 60.5489 90.5683 60.3677 89.4469C60.2204 88.5293 60.0165 87.7476 59.8579 87.1359C59.722 86.6375 59.62 86.241 59.5973 85.9691C58.2606 72.9304 56.7427 58.1019 52.7098 43.9758C52.6645 43.8058 52.6079 43.5566 52.5513 43.2848C51.9622 40.7246 50.5688 34.7094 44.8481 33.3726C43.9759 33.1461 43.0356 33.0441 42.0501 33.0441V33.0441Z" fill="#EDEDED"/>
<path d="M128.2 69.9286C127.102 68.6938 125.402 68.1954 123.805 68.0254C121.789 67.8102 119.772 67.6063 117.756 67.4137C115.411 67.1985 113.032 66.9719 110.687 66.9153C110.347 66.9153 110.019 66.904 109.69 66.904C107.549 66.904 104.468 66.4961 103.335 68.977C102.746 70.2911 102.361 71.809 101.908 73.1797C99.3364 80.9848 90.0926 81.3133 83.2165 81.1208C74.2899 80.8602 64.2985 82.6161 55.6325 80.3618C51.747 79.3422 47.9407 77.2012 46.6153 73.1797C45.9356 71.152 45.5165 68.0368 43.2735 67.1758C41.5516 66.5188 39.6145 66.87 37.8247 66.9153C35.4684 66.9719 33.1009 67.1985 30.7559 67.4137C28.7395 67.6063 26.7231 67.8102 24.7067 68.0254C23.1095 68.1954 21.4102 68.6938 20.3114 69.9286C19.02 71.3899 20.1188 73.2704 20.3794 74.9583C21.5122 82.2309 24.1177 89.5036 25.7602 96.7083C27.7087 105.204 29.6684 113.689 31.9341 122.106C33.0782 126.297 34.3016 130.466 35.6157 134.612C36.2614 136.651 37.2243 142.689 39.0368 144.116C40.6794 145.408 43.4774 143.629 45.2106 143.414C47.363 143.142 49.5493 142.825 51.7016 142.598C68.9204 140.729 86.1165 141.182 103.267 143.414C105 143.641 107.799 145.408 109.441 144.116C111.254 142.689 112.216 136.651 112.862 134.612C114.188 130.477 115.411 126.309 116.544 122.106C118.821 113.689 120.781 105.204 122.718 96.7083C124.36 89.5036 126.977 82.2309 128.121 74.9583C128.404 73.2704 129.503 71.3899 128.2 69.9286V69.9286Z" fill="#EDEDED"/>
</svg>
