<svg width="150" height="126" viewBox="0 0 150 126" fill="none" xmlns="http://www.w3.org/2000/svg">
<path d="M0 54.0005C0 87.0005 33.5 126 75 126C116.5 126 150 87.0005 150 54.0005H0Z" fill="#EDEDED"/>
<path d="M150 53.9995C150 75.2495 116.5 92.4995 75 92.4995C33.5 92.4995 0 75.2495 0 53.9995C0 32.7495 33.5 15.4995 75 15.4995C116.5 15.4995 150 32.7495 150 53.9995Z" fill="#EDEDED"/>
<path d="M75 87.5002C37 87.5002 4.75 72.0002 4.75 53.7502C4.75 35.5002 37 20.0002 75 20.0002C113 20.0002 145.25 35.5002 145.25 53.7502C145.25 72.2502 113 87.5002 75 87.5002Z" fill="#EDEDED"/>
<path d="M26.25 11.9998C26.5 16.2498 28.5 30.4998 26.75 36.9998C37.75 38.9998 29.5 17.7498 26.25 11.9998Z" fill="#EDEDED"/>
<path d="M134 40.2503C139 28.7503 131.25 16.7503 126.25 23.7503C121.25 30.7503 125 35.2503 112.25 32.7503C109.5 28.0003 116.25 13.5003 112.25 10.7503C105.75 6.50029 105.75 22.5003 98.25 13.2503C90.75 4.25029 90.5 25.5003 79.25 25.5003C73.75 25.5003 81.5 9.00029 69 5.75029C56.5 2.50029 60 16.7503 45 8.50029C30 0.250291 22.25 12.7503 29.25 18.0003C36 23.2503 30.5 33.7503 29.5 37.7503C21 33.7503 21.5 51.0003 21.75 53.7503C15.75 55.7503 6 60.0003 5.75 60.2503C12 75.2503 41 87.5003 75 87.5003C113 87.5003 145.25 72.0003 145.25 53.7503C145.25 35.2503 125.75 59.0003 134 40.2503" fill="#EDEDED"/>
<path d="M90.75 60.9998C97 47.7498 81.75 53.2498 76 58.9998C75.75 49.4998 80.75 43.4998 85 36.9998C78 41.9998 70.5 47.7498 62.25 50.7498C67 56.2498 69.5 63.7498 70.5 70.9998C90.5 72.9998 86 82.4998 85 87.2498C108.75 85.4998 84.75 73.9998 90.75 60.9998Z" fill="#EDEDED"/>
<path d="M38.2502 28.0004C34.2502 32.0004 33.0002 37.0004 35.5002 39.5004C37.7502 42.0004 42.7502 40.7504 46.7502 36.7504C50.7502 32.7504 52.0002 27.7504 49.5002 25.2504C47.0002 23.0004 42.0002 24.2504 38.2502 28.0004" fill="#EDEDED"/>
<path d="M91.0002 75.0007C87.0002 79.0007 85.7502 84.0007 88.2502 86.5007C90.5002 89.0007 95.5002 87.7507 99.5002 83.7507C103.5 79.7507 104.75 74.7507 102.25 72.2507C100 69.7507 95.0002 71.0007 91.0002 75.0007Z" fill="#EDEDED"/>
<path d="M60.25 21C50.5 21.5 46 46.75 39 45.25C44.75 50.75 47.75 59 47.75 67C49.25 67.25 51.5 63 52.75 67.5C51 53.75 51.5 38.75 60.25 21Z" fill="#EDEDED"/>
<path d="M101 29.25C103.5 34.25 103.25 39.5 100.25 41C97.25 42.5 93 40 90.25 35C87.75 30 88 24.75 91 23.25C94 21.75 98.5 24.25 101 29.25Z" fill="#EDEDED"/>
<path d="M120.25 33.4997C99 30.9997 95.75 30.4997 113.5 48.2497C118.25 54.2497 100.25 66.9997 93.75 68.2497C102 83.9997 103.5 85.4997 115 81.4997C131 75.9997 123 57.2497 130.5 61.2497C126.5 55.2497 104 52.4997 120.25 33.4997" fill="#EDEDED"/>
<path d="M133.25 46.2496C132.75 43.4996 138.75 37.2496 137.5 28.4996C136.25 20.4996 127 15.7496 124.25 24.9996C121.75 33.4996 113.75 31.4996 113.75 31.4996C119 10.9996 116.25 0.999555 104.75 13.2496C98.7502 19.4996 104.25 -8.00044 85.2502 21.2496C75.5002 36.2496 79.5002 -13.0004 62.0002 4.99956C48.0002 19.2496 37.2502 -8.50044 28.0002 8.24956C23.2502 16.9996 33.5002 18.2496 30.7502 35.2496C30.7502 35.2496 20.2502 28.7496 21.2502 50.2496C21.5002 53.9996 2.75024 54.7496 7.00024 60.9996C11.2502 59.2496 38.0002 46.4996 36.5002 58.2496C36.0002 61.7496 33.7502 72.9996 40.0002 72.4996C46.7502 71.9996 53.0002 61.4996 53.2502 73.4996C53.5002 82.7496 58.0002 83.2496 64.5002 77.4996C66.2502 75.9996 67.5002 73.4996 70.0002 72.4996C74.5002 70.7496 78.7502 73.2496 83.0002 74.7496C91.0002 77.7496 88.7502 66.4996 83.2502 64.4996C82.2502 64.2496 76.0002 63.2496 76.5002 62.2496C77.5002 59.2496 81.0002 57.2496 83.5002 55.9996C85.7502 54.9996 88.2502 54.2496 90.7502 54.2496C94.2502 54.4996 93.0002 56.7496 92.2502 59.4996C91.5002 62.7496 92.0002 66.9996 95.5002 67.9996C99.5002 69.2496 102.75 65.4996 105.5 63.2496C107.5 61.4996 120.75 52.9996 116.25 61.9996C113.5 67.2496 100.25 68.9996 106.25 76.7496C110.25 81.7496 115.75 79.4996 118.75 74.7496C121.25 70.9996 122.25 66.4996 123.25 61.9996C124 58.4996 124.25 56.4996 127.75 58.2496C132.5 60.7496 138.5 66.2496 138.75 57.2496C139 51.2496 141.25 40.2496 146.5 50.7496C143.25 36.9996 133.75 49.9996 133.25 46.2496V46.2496ZM100.75 63.2496C100.5 63.4996 94.2502 67.9996 93.2502 63.7496C92.5002 60.4996 95.7502 56.7496 93.7502 53.9996C90.2502 49.2496 81.0002 53.7496 77.5002 56.2496C75.5002 57.7496 70.5002 62.4996 74.2502 64.7496C77.0002 66.4996 81.2502 65.4996 83.7502 67.9996C85.7502 69.9996 86.2502 73.7496 82.7502 72.2496C78.2502 70.4996 73.7502 68.2496 68.7502 70.2496C66.0002 71.2496 59.2502 81.2496 56.0002 79.2496C54.2502 78.2496 55.0002 71.2496 54.7502 69.2496C54.0002 63.4996 50.0002 64.4996 46.2502 66.7496C44.7502 67.7496 40.2502 70.9996 38.5002 69.7496C36.7502 68.4996 37.7502 62.9996 38.0002 61.2496C39.2502 50.4996 32.2502 49.4996 23.2502 51.9996C23.2502 48.7496 23.0002 35.7496 29.0002 37.9996C32.5002 39.2496 41.5002 50.2496 44.7502 43.9996C48.2502 37.2496 63.7502 7.49956 63.7502 29.7496C63.7502 35.7496 58.5002 48.4996 62.7502 51.4996C66.5002 53.9996 76.0002 43.4996 78.5002 41.9996C84.7502 37.7496 91.7502 33.7496 95.0002 43.2496C97.2502 49.4996 97.7502 57.7496 105.5 59.4996C103.5 60.7496 102 61.9996 100.75 63.2496V63.2496ZM112.75 52.7496C112 57.2496 106.75 58.2496 103.25 56.2496C96.0002 51.9996 100 37.2496 91.0002 34.9996C80.2502 32.2496 66.2502 50.9996 64.2502 48.9996C61.7502 46.2496 67.0002 34.7496 66.2502 27.2496C64.0002 7.99956 49.0002 26.7496 43.0002 42.2496C41.7502 45.2496 32.5002 37.2496 32.5002 37.2496C37.2502 16.7496 26.0002 16.9996 29.5002 10.4996C36.7502 -4.00044 47.5002 23.9996 62.2502 8.74956C78.2502 -7.50044 72.2502 45.2496 87.2502 22.9996C101 2.74955 98.7502 19.4996 101.75 18.4996C107 16.7496 116 -0.500442 111.25 31.2496C81.5002 25.7496 114.25 43.9996 112.75 52.7496ZM134.75 60.4996C131 59.7496 127 53.2496 122.5 55.4996C118.75 57.2496 118.5 67.2496 117 70.7496C115.25 74.9996 109.5 80.2496 106 73.9996C105.25 72.4996 116 65.7496 117.25 62.7496C119.75 56.9996 114.5 56.4996 115 52.7496C116.75 41.2496 89.2502 29.7496 114 33.9996C128 36.4996 124.75 19.2496 131.25 22.9996C143.75 30.4996 122 49.2496 136 49.4996C135 53.2496 135.5 56.9996 134.75 60.4996Z" fill="#EDEDED"/>
<path d="M16.5002 57.4999C20.5002 61.2499 21.7502 66.5 19.2502 69C17.0002 71.5 12.0002 70.25 8.0002 66.25C4.0002 62.2499 2.7502 57.25 5.2502 54.7499C7.7502 52.4999 12.7502 53.7499 16.5002 57.4999Z" fill="#EDEDED"/>
</svg>
