<svg width="97" height="125" viewBox="0 0 97 125" fill="none" xmlns="http://www.w3.org/2000/svg">
<path d="M96.8125 3.91985C96.9136 4.52723 96.894 5.14857 96.7549 5.74838C96.6158 6.34819 96.3599 6.91472 96.0018 7.41561C95.6437 7.91649 95.1904 8.34192 94.6678 8.66758C94.1453 8.99324 93.5637 9.21276 92.9562 9.3136L58.6438 15.0323L57.9063 18.7511H82.8125C84.0557 18.7511 85.248 19.245 86.1271 20.124C87.0061 21.0031 87.5 22.1954 87.5 23.4386V48.4386C87.4994 53.5549 85.5681 58.4826 82.092 62.2368C78.6159 65.9909 73.8512 68.295 68.75 68.6886V71.8761C68.75 84.0823 60 94.2448 48.4375 96.4386V115.626H64.0625C65.3057 115.626 66.498 116.12 67.3771 116.999C68.2561 117.878 68.75 119.07 68.75 120.314C68.75 121.557 68.2561 122.749 67.3771 123.628C66.498 124.507 65.3057 125.001 64.0625 125.001H23.4375C22.1943 125.001 21.002 124.507 20.1229 123.628C19.2439 122.749 18.75 121.557 18.75 120.314C18.75 119.07 19.2439 117.878 20.1229 116.999C21.002 116.12 22.1943 115.626 23.4375 115.626H39.0625V96.4386C33.3481 95.3466 28.1934 92.2963 24.4858 87.813C20.7782 83.3296 18.7498 77.6939 18.75 71.8761V68.6886C13.6488 68.295 8.88406 65.9909 5.40799 62.2368C1.93191 58.4826 0.000583027 53.5549 0 48.4386V23.4386C0 22.1954 0.49386 21.0031 1.37294 20.124C2.25201 19.245 3.4443 18.7511 4.6875 18.7511H48.3437L50.0938 10.0198C50.2799 9.08691 50.7455 8.2327 51.4287 7.5707C52.1119 6.9087 52.9804 6.47025 53.9187 6.3136L91.4188 0.0635978C92.0261 -0.0374853 92.6475 -0.0179151 93.2473 0.121191C93.8471 0.260297 94.4136 0.516213 94.9145 0.874319C95.4154 1.23243 95.8408 1.68571 96.1665 2.20827C96.4921 2.73083 96.7117 3.31243 96.8125 3.91985ZM43.6562 42.1886L46.4688 28.1261H9.375V42.1886H43.6562ZM78.125 42.1886V28.1261H56.0313L53.2188 42.1886H78.125Z" fill="#EDEDED"/>
</svg>
